# xmcd
#
# Track frame offsets: 
#        150
#        48822
#        72015
#        99712
#        104742
#        133720
#        154097
#        160065
#        175497
#        193715
#        211992
#        230317
#        246985
#        258000
#        264635
#
# Disc length: 3879 seconds
#
# Revision: 8
# Processed by: cddbd v1.5.2PL0 Copyright (c) Steve Scherf et al.
# Submitted via: ExactAudioCopy v0.99pb5
#
DISCID=d10f250f
DTITLE=James Brown - Sex Machine
DYEAR=1970
DGENRE=Funk
TTITLE0=Get Up I Feel Like Being a Sex Machine
TTITLE1=Brother Rapp (Part I And Part II)
TTITLE2=Bewildered
TTITLE3=I Got the Feelin'
TTITLE4=Give It Up Or Turnit A Loose
TTITLE5=I Don't Want Nobody To Give Me Nothing (Open Up the Door I'll 
TTITLE5=Get It Myself)
TTITLE6=Licking Stick - Licking Stick
TTITLE7=Lowdown Popcorn
TTITLE8=Spinning Wheel
TTITLE9=If I Ruled the World
TTITLE10=There Was a Time
TTITLE11=It's A Man's Man's Man's World
TTITLE12=Please, Please, Please
TTITLE13=I Can't Stand Myself (When You Touch Me)
TTITLE14=Mother Popcorn
EXTD=YEAR: 1970\nRecorded Live at Home in Augusta, Georgia with His Ba
EXTD=d Self
EXTT0=
EXTT1=
EXTT2=
EXTT3=
EXTT4=
EXTT5=
EXTT6=
EXTT7=
EXTT8=
EXTT9=
EXTT10=
EXTT11=
EXTT12=
EXTT13=
EXTT14=
PLAYORDER=
